<?xml version="1.0" encoding="UTF-8" standalone="no"?>
<svg width="799px" height="799px" viewBox="0 0 799 799" version="1.1" xmlns="http://www.w3.org/2000/svg" xmlns:xlink="http://www.w3.org/1999/xlink" xmlns:sketch="http://www.bohemiancoding.com/sketch/ns">
    <!-- Generator: Sketch 3.2.2 (9983) - http://www.bohemiancoding.com/sketch -->
    <title>Oval 3</title>
    <desc>Created with Sketch.</desc>
    <defs></defs>
    <g id="Page-1" stroke="none" stroke-width="1" fill="none" fill-rule="evenodd" sketch:type="MSPage">
        <g id="Black" sketch:type="MSArtboardGroup" transform="translate(-51.000000, -51.000000)" fill="#FFFFFF">
            <path d="M450.5,850 C671.137758,850 850,671.137758 850,450.5 C850,229.862242 671.137758,51 450.5,51 C229.862242,51 51,229.862242 51,450.5 C51,671.137758 229.862242,850 450.5,850 Z M444.108,535.194 C494.413409,535.194 535.194,494.413409 535.194,444.108 C535.194,393.802591 494.413409,353.022 444.108,353.022 C393.802591,353.022 353.022,393.802591 353.022,444.108 C353.022,494.413409 393.802591,535.194 444.108,535.194 Z M586.001145,184.564029 C439.128764,109.728813 259.399245,168.126473 184.564029,314.998855 C109.728813,461.871236 168.126473,641.600755 314.998855,716.435971 C461.871236,791.271187 641.600755,732.873527 716.435971,586.001145 C724.449367,570.273971 718.196114,551.028436 702.468939,543.01504 C686.741765,535.001645 667.49623,541.254898 659.482834,556.982073 C600.674409,672.400105 459.43596,718.291259 344.017927,659.482834 C228.599895,600.674409 182.708741,459.43596 241.517166,344.017927 C300.325591,228.599895 441.56404,182.708741 556.982073,241.517166 C601.813378,264.359857 637.24676,300.197741 659.536322,344.081681 C667.529662,359.819058 686.767209,366.096841 702.504586,358.103501 C718.241964,350.110161 724.519747,330.872614 716.526407,315.135237 C688.161603,259.290292 642.98658,213.599558 586.001145,184.564029 Z" id="Oval-3" sketch:type="MSShapeGroup"></path>
        </g>
    </g>
</svg>